<svg xmlns="http://www.w3.org/2000/svg" viewBox="0 0 100 100" width="100" height="100">
  <rect width="100" height="100" rx="22" fill="#060608" />
  <g fill="#FFD600" transform="translate(4, 4) scale(0.76)">
    <path d="M15 80 L 25 35 L 39 35 L 29 80 Z" />
    <path d="M 25 35 C 29 23, 44 23, 50 35 C 54 23, 69 23, 75 35 C 80 35, 84 42, 82 50 L 75 80 L 61 80 L 67 52 C 68 47, 65 44, 61 44 C 57 44, 54 47, 53 52 L 47 80 L 33 80 L 39 52 C 40 47, 37 44, 33 44 C 29 44, 26 47, 25 52 L 19 80 L 15 80" />
    <path d="M 75 80 L 95 38 L 84 38 L 68 70 Z" />
    <path fill-rule="evenodd" clip-rule="evenodd" d="M 97 32 C 101.97 32, 106 27.97, 106 23 C 106 18.03, 101.97 14, 97 14 C 92.03 14, 88 18.03, 88 23 C 88 27.97, 92.03 32, 97 32 Z M 97 27 C 99.21 27, 101 25.21, 101 23 C 101 20.79, 99.21 19, 97 19 C 94.79 19, 93 20.79, 93 23 C 93 25.21, 94.79 27, 97 27 Z" />
  </g>
</svg>
